<svg height="512" viewBox="0 0 58 59" width="512" xmlns="http://www.w3.org/2000/svg"><g id="Page-1" fill="none" fill-rule="evenodd"><g id="027---Future-Sight" fill-rule="nonzero"><g fill="#8c9c9c"><path id="Shape" d="m20 57h-1v-18h-2v18h-1c-.5522847 0-1 .4477153-1 1s.4477153 1 1 1h4c.5522847 0 1-.4477153 1-1s-.4477153-1-1-1z"/><path id="Shape" d="m11 57h-.59l6.639-18.982-1.889-.661-6.87 19.643h-1.29c-.55228475 0-1 .4477153-1 1s.44771525 1 1 1h4c.5522847 0 1-.4477153 1-1s-.4477153-1-1-1z"/><path id="Shape" d="m29 57h-1.29l-6.762-19.331-1.888.66 6.53 18.671h-.59c-.5522847 0-1 .4477153-1 1s.4477153 1 1 1h4c.5522847 0 1-.4477153 1-1s-.4477153-1-1-1z"/></g><path id="Shape" d="m14 34v3c0 2.209139 1.790861 4 4 4s4-1.790861 4-4v-2z" fill="#e9931f"/><path id="Shape" d="m53 19c2.761 0 5 5.373 5 12s-2.239 12-5 12l-3-12z" fill="#67b0c3"/><path id="Shape" d="m11 34-7-1-1-2 1-2 7-1 2 3z" fill="#e9931f"/><path id="Shape" d="m27 37-15.12-1.89c-.501169-.0605761-.8785995-.4851853-.88-.99v-6.24c.0014005-.5048147.378831-.9294239.88-.99l12.56-1.58h4.56z" fill="#e7bb19"/><path id="Shape" d="m15 31.531c-.527117-.0016856-.9624152-.4122476-.9949014-.9383653-.0324862-.5261176.348996-.9871134.8719014-1.0536347l8-1c.3589399-.0535223.7187045.0916202.9400159.3792375.2213115.2876174.2694294.672561.1257257 1.0058053-.1437037.3332442-.4566713.5624782-.8177416.5989572l-8 1c-.0414251.0056189-.0831966.0082923-.125.008z" fill="#eacc5b"/><path id="Shape" d="m41.93 20.7 11.07-1.7v24l-24.3-3.74c-.9785195-.1484567-1.7013004-.9902838-1.7-1.98v-11.42z" fill="#eacc5b"/><path id="Shape" d="m43 25.585c-.5215895-.001782-.9542071-.4041621-.9937112-.9242566-.0395042-.5200944.3273747-.9832009.8427112-1.0637434l6-.923c.5401122-.071392 1.0379855.3027057 1.119722.8413495.0817366.5386438-.2827447 1.0435995-.819722 1.1356505l-6 .923c-.04932.0074032-.0991276.0110802-.149.011z" fill="#ece6c1"/><path id="Shape" d="m26.984 25.86c.6680763.0920534 1.3416126.1388268 2.016.14 4.908 0 9.4-2.48 12.91-5.28 2.5199384-2.032114 4.8011931-4.3435617 6.8-6.89.382911-.487089.382911-1.172911 0-1.66-2.235-2.86-10.21-12.17-19.71-12.17s-17.475 9.31-19.713 12.17c-.38291101.487089-.38291101 1.172911 0 1.66 1.865 2.39 7.74 9.28 15.158 11.48h.01c.825368.2544503 1.6716869.435159 2.529.54" fill="#e3e7e8"/><circle id="Oval" cx="29" cy="13" fill="#3b8eca" r="13"/><circle id="Oval" cx="29" cy="13" fill="#2980b1" r="10"/><path id="Shape" d="m22 13c0 3.8659932 3.1340068 7 7 7s7-3.1340068 7-7c0-3.86599325-3.1340068-7-7-7-.9869279-.00236379-1.9626486.20915607-2.86.62.5487456.47003671.8632109 1.15747253.86 1.88 0 1.38071187-1.1192881 2.5-2.5 2.5-.7225275.0032109-1.4099633-.3112544-1.88-.86-.4108439.8973514-.6223638 1.8730721-.62 2.86z" fill="#35495e"/><path id="Shape" d="m57.62 53.79-4.83 3.96c-.3187246.2656125-.7604383.3276625-1.1400073.1601432-.3795691-.1675193-.6314189-.5356671-.6499927-.9501432v-.96h-15c-.5522847 0-1-.4477153-1-1v-4c0-.5522847.4477153-1 1-1h15v-.96c.0185738-.4144761.2704236-.7826239.6499927-.9501432.379569-.1675193.8212827-.1054693 1.1400073.1601432l4.83 3.96c.2416095.1909813.382541.4820243.382541.79s-.1409315.5990187-.382541.79z" fill="#ff5364"/><path id="Shape" d="m51 50v1c0 .5522847-.4477153 1-1 1s-1-.4477153-1-1v-1z" fill="#d64d60"/><path id="Shape" d="m51 55v1h-2v-1c0-.5522847.4477153-1 1-1s1 .4477153 1 1z" fill="#d64d60"/><rect id="Rectangle-path" fill="#dc7e25" height="10" rx="2" width="4" y="26"/><circle id="Oval" cx="25" cy="9" fill="#e3e7e8" r="4"/></g></g></svg>